<svg width="290" height="30" viewBox="0 0 290 30" fill="none" xmlns="http://www.w3.org/2000/svg">
<path d="M17.1419 2.56113C19.4767 3.82943 20.6441 5.8782 20.6441 8.70747C20.6441 11.5367 19.4767 13.5855 17.1419 14.8538C14.8072 16.1221 11.8458 16.7563 8.25764 16.7563H3.83391V29.4514H0V0.658691H8.25764C11.8458 0.658691 14.8072 1.29284 17.1419 2.56113ZM14.1928 13.6294C15.6182 12.6416 16.3309 11.0026 16.3309 8.70991C16.3309 6.41723 15.6182 4.77821 14.1928 3.78796C12.7674 2.80016 10.703 2.30747 7.99959 2.30747H4.35C4.20255 2.30747 4.07966 2.35626 3.98136 2.45382C3.88305 2.55138 3.83391 2.67333 3.83391 2.81967V14.527L3.3178 15.7709C3.29322 15.8197 3.30551 15.8636 3.35467 15.8977C3.40382 15.9343 3.45297 15.9416 3.50212 15.9172L4.5712 15.1123H7.99959C10.703 15.1123 12.7674 14.6172 14.1928 13.6294Z" fill="white"/>
<path d="M51.6104 29.4514L40.7723 15.8416C40.6986 15.7197 40.5634 15.6587 40.3668 15.6587H38.1918C38.0443 15.6587 37.9215 15.7075 37.8232 15.805C37.7249 15.9026 37.6757 16.0245 37.6757 16.1709V29.4514H33.8418V0.658691H40.6249C44.3359 0.658691 47.3268 1.20747 49.6026 2.30503C51.8759 3.40259 53.0137 5.35381 53.0137 8.15869C53.0137 10.2075 52.392 11.788 51.1509 12.8953C49.9098 14.005 48.1821 14.7806 45.9702 15.2197C45.8473 15.2441 45.749 15.3002 45.6753 15.3831C45.6015 15.4685 45.5647 15.5733 45.5647 15.6928C45.5647 15.7904 45.6015 15.9002 45.6753 16.0221L56.3291 29.4489H51.6104V29.4514ZM46.6337 12.7684C48.01 11.9392 48.6982 10.4026 48.6982 8.15869C48.6982 5.91479 48.01 4.37821 46.6337 3.54894C45.2575 2.71967 43.1685 2.30503 40.3668 2.30503H38.1918C38.0443 2.30503 37.9215 2.35381 37.8232 2.45138C37.7249 2.54894 37.6757 2.67089 37.6757 2.81723V13.4636L37.1965 14.7075C37.1719 14.7563 37.1842 14.7928 37.2333 14.8172C37.2825 14.8416 37.3193 14.8416 37.3439 14.8172L38.413 14.0124H40.3668C43.1685 14.0124 45.2575 13.5977 46.6337 12.7684Z" fill="white"/>
<path d="M107.349 28.739C105.112 29.5561 102.556 29.9634 99.6808 29.9634C96.8054 29.9634 94.1708 29.3488 91.7746 28.1171C89.3784 26.8854 87.4787 25.1341 86.0778 22.8659C84.677 20.5976 83.9766 17.9756 83.9766 15C83.9766 12.0244 84.677 9.40244 86.0778 7.13415C87.4787 4.86585 89.3784 3.10975 91.7746 1.86585C94.1708 0.62195 96.8054 0 99.6808 0C101.942 0 104.068 0.26341 106.058 0.7878C108.049 1.31219 109.646 2.01219 110.851 2.89024V8.30488H110.482C109.401 5.57317 107.943 3.75122 106.112 2.83659C104.281 1.92195 102.136 1.46585 99.6783 1.46585C97.6631 1.46585 95.8002 1.94146 94.0946 2.89268C92.3866 3.8439 90.998 5.33171 89.9289 7.3561C88.8599 9.38049 88.3241 11.9293 88.3241 15.0024C88.3241 18.2463 88.8894 20.8756 90.0199 22.8878C91.1504 24.9 92.6004 26.3439 94.3699 27.2219C96.1394 28.1 98.0317 28.539 100.047 28.539C101.767 28.539 103.377 28.3073 104.876 27.8439C106.375 27.3805 107.53 26.7951 108.341 26.0878C108.44 26.0146 108.489 25.8805 108.489 25.6854V17.8561C108.489 17.7829 108.457 17.7268 108.396 17.6927C108.334 17.6561 108.29 17.6634 108.268 17.7098L107.309 18.4049C106.793 18.7219 106.4 18.8805 106.13 18.8805H101.116V16.978H112.397V25.6122C111.266 26.8805 109.583 27.9244 107.346 28.7415L107.349 28.739Z" fill="white"/>
<path d="M145.061 27.6953V29.4514H126.666V0.658691H130.5V26.7441L129.873 28.2441C129.849 28.2928 129.861 28.3367 129.91 28.3733C129.959 28.4099 130.008 28.4172 130.058 28.3928L130.979 27.6977H145.061V27.6953Z" fill="white"/>
<path d="M187.785 15C187.785 17.9512 187.072 20.5683 185.647 22.8463C184.221 25.1268 182.304 26.8829 179.896 28.1146C177.487 29.3463 174.846 29.961 171.97 29.961C169.095 29.961 166.453 29.3463 164.044 28.1146C161.636 26.8829 159.719 25.1268 158.293 22.8463C156.868 20.5658 156.155 17.9512 156.155 15C156.155 12.0488 156.868 9.43414 158.293 7.15366C159.719 4.87317 161.636 3.10975 164.044 1.86585C166.453 0.62195 169.095 0 171.97 0C174.846 0 177.487 0.62195 179.896 1.86585C182.304 3.10975 184.221 4.87317 185.647 7.15366C187.072 9.43414 187.785 12.0512 187.785 15ZM160.505 15C160.505 18.0488 161.046 20.5927 162.127 22.6293C163.209 24.6658 164.622 26.1585 166.367 27.1122C168.112 28.0634 169.979 28.539 171.97 28.539C173.961 28.539 175.829 28.0634 177.573 27.1122C179.318 26.161 180.732 24.6683 181.813 22.6293C182.894 20.5927 183.435 18.0512 183.435 15C183.435 11.9488 182.894 9.40975 181.813 7.37317C180.732 5.33658 179.318 3.84146 177.573 2.89024C175.829 1.93902 173.961 1.46341 171.97 1.46341C169.979 1.46341 168.112 1.93902 166.367 2.89024C164.622 3.84146 163.209 5.33658 162.127 7.37317C161.046 9.40975 160.505 11.9537 160.505 15Z" fill="white"/>
<path d="M220.983 16.9587C222.15 18.1416 222.732 19.6709 222.732 21.5489C222.732 24.5002 221.516 26.5563 219.083 27.7148C216.65 28.8733 213.418 29.4514 209.388 29.4514H201.867V0.658691H209.203C212.791 0.658691 215.623 1.19528 217.702 2.26845C219.778 3.34162 220.815 5.15869 220.815 7.71967C220.815 9.08552 220.415 10.2636 219.616 11.2514C218.817 12.2392 217.766 12.988 216.463 13.5026C216.266 13.5758 216.168 13.7343 216.168 13.9782C216.168 14.2221 216.291 14.3806 216.537 14.4538C218.331 14.9416 219.81 15.7782 220.978 16.9611L220.983 16.9587ZM205.185 14.305C205.16 14.3538 205.165 14.3977 205.205 14.4319C205.241 14.4684 205.283 14.4636 205.332 14.4148L206.401 13.6465H208.761C210.702 13.6465 212.202 13.5246 213.258 13.2806C214.315 13.0367 215.126 12.5002 215.691 11.6709C216.257 10.8416 216.539 9.58552 216.539 7.9026C216.539 6.21967 216.257 4.97576 215.691 4.17088C215.126 3.36601 214.32 2.85381 213.276 2.6343C212.231 2.41479 210.715 2.30503 208.722 2.30503H206.178C206.03 2.30503 205.908 2.35381 205.809 2.45138C205.711 2.54894 205.662 2.67089 205.662 2.81723V13.0611L205.183 14.305H205.185ZM213.959 27.4392C215.286 27.1953 216.355 26.6294 217.166 25.7392C217.977 24.8489 218.382 23.488 218.382 21.6587C218.382 19.8294 217.977 18.4099 217.166 17.4709C216.355 16.5319 215.266 15.9221 213.902 15.6416C212.538 15.3611 210.761 15.2221 208.577 15.2221H206.18C206.033 15.2221 205.91 15.2709 205.812 15.3685C205.713 15.466 205.664 15.588 205.664 15.7343V27.2953C205.664 27.4172 205.713 27.5319 205.812 27.6416C205.91 27.7514 206.033 27.805 206.18 27.805H208.577C210.838 27.805 212.632 27.6831 213.959 27.4392Z" fill="white"/>
<path d="M250.97 19.666C250.872 19.605 250.773 19.5733 250.675 19.5733H239.542C239.444 19.5733 239.35 19.605 239.267 19.666C239.181 19.727 239.124 19.8075 239.102 19.9026L235.231 29.4514H233.314L244.706 0.658691H247.507L258.935 29.4514H254.917L251.157 19.9026C251.132 19.805 251.071 19.727 250.973 19.666H250.97ZM250.658 18.9343C250.719 18.9221 250.737 18.8928 250.714 18.8416L245.59 5.92699C245.517 5.70747 245.369 5.59772 245.148 5.59772C244.902 5.59772 244.742 5.70747 244.669 5.92699L240.466 16.3538C240.442 16.4026 240.429 16.4758 240.429 16.5733C240.429 16.8416 240.614 16.9758 240.982 16.9758H247.397C247.692 16.9758 248.109 17.1465 248.65 17.488L250.53 18.9148C250.555 18.9392 250.597 18.9465 250.658 18.9343Z" fill="white"/>
<path d="M290.047 27.6953V29.4514H271.651V0.658691H275.485V26.7441L274.859 28.2441C274.834 28.2928 274.846 28.3367 274.895 28.3733C274.945 28.4099 274.994 28.4172 275.043 28.3928L275.965 27.6977H290.047V27.6953Z" fill="white"/>
</svg>
